<svg width="500" height="500" viewBox="0 0 500 500" fill="none" xmlns="http://www.w3.org/2000/svg">
<mask id="mask0_2206_36" style="mask-type:luminance" maskUnits="userSpaceOnUse" x="26" y="26" width="444" height="444">
<path d="M26.2031 26.2031H469.964V469.964H26.2031V26.2031Z" fill="white"/>
</mask>
<g mask="url(#mask0_2206_36)">
<mask id="mask1_2206_36" style="mask-type:luminance" maskUnits="userSpaceOnUse" x="26" y="26" width="444" height="444">
<path d="M248.083 469.964C188.844 469.964 133.062 446.906 91.2031 404.958C49.2604 363.104 26.2031 307.323 26.2031 248.083C26.2031 188.844 49.2604 133.062 91.2031 91.2031C133.062 49.2604 188.844 26.2031 248.083 26.2031C307.323 26.2031 363.104 49.2604 404.958 91.2031C446.906 133.151 469.964 188.844 469.964 248.083C469.964 307.323 446.906 363.104 404.958 404.958C363.104 446.906 307.323 469.964 248.083 469.964ZM248.083 39.5052C192.391 39.5052 139.979 61.2292 100.604 100.604C61.2292 139.979 39.5052 192.391 39.5052 248.083C39.5052 303.776 61.2292 356.188 100.604 395.562C139.979 434.932 192.391 456.661 248.083 456.661C303.776 456.661 356.188 434.932 395.562 395.562C434.932 356.188 456.661 303.776 456.661 248.083C456.661 192.391 434.932 139.979 395.562 100.604C356.188 61.2292 303.776 39.5052 248.083 39.5052Z" fill="white"/>
</mask>
<g mask="url(#mask1_2206_36)">
<path d="M26.2031 26.2031H469.964V469.964H26.2031V26.2031Z" fill="#2563EB"/>
</g>
</g>
<mask id="mask2_2206_36" style="mask-type:luminance" maskUnits="userSpaceOnUse" x="224" y="89" width="198" height="216">
<path d="M224 89.0989H421.792V304.875H224V89.0989Z" fill="white"/>
</mask>
<g mask="url(#mask2_2206_36)">
<path d="M312.359 89.7187C279.458 86.4062 248.318 96.5364 224.359 115.635C245.26 104.521 269.568 99.2604 294.891 101.812C363.021 108.677 412.688 169.474 405.823 237.609C403.266 262.953 393.245 285.745 378.161 304.016C401.688 284.354 417.849 255.839 421.161 222.917C427.896 156.089 379.182 96.4583 312.359 89.7187Z" fill="#FF9F00"/>
</g>
<mask id="mask3_2206_36" style="mask-type:luminance" maskUnits="userSpaceOnUse" x="73" y="325" width="335" height="53">
<path d="M73.8545 325.333H408V377.333H73.8545V325.333Z" fill="white"/>
</mask>
<g mask="url(#mask3_2206_36)">
<path d="M176.87 330.417C93.1146 313.802 74.4219 351.781 74.4219 351.781C90.2865 338.62 130.375 330.724 234.417 364.547C362.682 406.234 406.948 327.714 406.948 327.714C334.182 379.167 250.635 345.052 176.87 330.417Z" fill="#2563EB"/>
</g>
<mask id="mask4_2206_36" style="mask-type:luminance" maskUnits="userSpaceOnUse" x="74" y="349" width="285" height="59">
<path d="M74.4219 349.333H358.406V407.026H74.4219V349.333Z" fill="white"/>
</mask>
<g mask="url(#mask4_2206_36)">
<path d="M162.532 357.943C118.256 343.479 90.2555 349.99 74.5264 358.026C90.8337 354.615 113.354 354.787 143.354 364.589C210.615 386.563 284.959 426.917 358.339 395.474C291.245 413.396 223.933 378.005 162.532 357.943Z" fill="#51ADE5"/>
</g>
<path d="M224.115 311.802H235.87V300.047H224.115V311.802ZM208.531 311.802H220.292V300.047H208.531V311.802ZM224.115 284.74V296.495H235.87V284.74H224.115ZM208.531 296.495H220.292V284.74H208.531V296.495Z" fill="#656263"/>
<path d="M291.323 242.057L261.636 265.589L272.625 274.297L291.323 259.479L359.87 313.802V296.38L291.323 242.057Z" fill="#51ADE5"/>
<path d="M316.308 232.094C316.313 232.125 316.313 232.161 316.313 232.193C316.323 232.208 316.323 232.167 316.308 232.094ZM335.933 205.51C335.964 205.542 335.995 205.563 336.032 205.594C336.047 205.594 336.006 205.563 335.933 205.51ZM296.469 194.151C296.448 194.161 296.427 194.167 296.396 194.172C296.396 194.109 296.386 194.052 296.381 193.99C296.672 193.87 296.964 193.76 297.256 193.651C296.964 193.771 296.703 193.943 296.469 194.151ZM290.198 192.062C290.094 192.016 289.995 191.974 289.886 191.938C289.875 191.922 289.86 191.901 289.849 191.88C289.964 191.938 290.084 191.995 290.203 192.057C290.198 192.057 290.198 192.062 290.198 192.062ZM343.797 221.505C340.224 210.12 330.396 203.656 329.167 203.714C332.125 203.359 335.334 205.115 335.933 205.51C325.495 195.974 309.959 191.255 298.922 193.516C298.724 193.469 298.521 193.443 298.313 193.443C297.943 193.443 297.594 193.516 297.276 193.646C305.849 190.469 315.959 191.646 315.948 191.641C313.573 190.151 313.589 190.453 312.084 189.505C317.469 189.115 331.922 191.635 331.922 191.635C331.12 190.74 327.386 187.911 325.631 187.245C331.917 188.964 335.823 191.651 337.094 191.677C337.094 191.677 335.219 190.208 334.354 188.859C348.141 190.901 355.948 195.745 356.448 196.271C355.354 194.594 350.125 189.26 345.453 186.339C346.995 186.651 348.396 187.417 349.907 187.839C340.396 180.62 328.641 181.036 327.677 181.797C329.912 179.771 333.604 179.354 334.25 179.349C319.438 177.51 303.078 183.339 295.886 192.38C295.834 192.302 295.776 192.214 295.719 192.13C301.011 184.698 309.979 179.995 309.969 179.995C307.167 180.104 307.349 180.349 305.573 180.411C309.802 177.052 323.157 170.984 323.157 170.984C321.99 170.693 317.308 170.464 315.479 170.901C321.641 168.776 326.386 168.792 327.448 168.099C327.448 168.099 325.073 167.938 323.594 167.312C336.131 161.229 345.313 160.818 346.021 160.974C344.172 160.208 336.844 158.75 331.344 158.979C332.792 158.365 334.375 158.203 335.86 157.698C323.938 157.104 314.469 164.083 314.099 165.255C314.808 162.313 317.636 159.875 318.151 159.516C306.698 165.417 297.516 176.682 294.677 187.073C295.974 181.63 298.542 177.245 298.537 177.25C296.672 178.516 296.896 178.599 295.719 179.401C297.172 175.318 303.683 165.516 303.683 165.516C302.766 165.807 299.479 167.646 298.427 168.719C301.719 164.651 304.959 162.646 305.381 161.724C305.381 161.724 303.703 162.625 302.427 162.828C308.386 153.354 314.459 149.172 315.006 148.984C313.422 149.245 307.813 151.365 304.162 153.854C304.891 152.823 305.901 152.042 306.698 151.068C298.323 155.724 294.839 164.495 295.084 165.453C294.328 163.188 295.183 160.375 295.396 159.849C291.662 166.125 289.839 173.74 289.964 180.589C287.453 174.182 282.422 167.729 276.104 163.641C276.058 163.521 278.396 165.74 278.729 168.224C278.547 167.328 272.073 161.474 263.229 161.016C264.287 161.505 265.448 161.74 266.469 162.302C262.422 161.724 256.907 162.25 255.485 162.677C256.021 162.609 262.766 163.604 271.563 169.031C270.427 169.385 268.667 169.328 268.667 169.328C269.396 169.917 272.896 170.26 277.287 172.292C275.969 171.828 272.5 171.646 271.615 171.771C271.615 171.771 281.021 177.255 283.891 180.047C282.584 179.865 282.74 179.708 280.677 179.411C280.672 179.411 283.672 181.401 286.631 184.568C279.959 178.984 270.131 174.995 260.453 174.661C261.016 174.76 264.261 175.656 265.974 177.781C265.224 176.969 254.797 174.922 245.282 180C246.693 179.849 248.052 179.365 249.464 179.302C244.886 181.24 239.459 185.255 238.245 186.589C238.761 186.188 246.422 182.99 259.006 183.13C258.047 184.208 256.162 185.26 256.162 185.26C257.297 185.417 261.167 183.573 267.021 182.938C265.365 183.281 261.631 185.276 260.782 185.958C260.782 185.958 274.032 185.771 278.787 186.891C277.308 187.516 277.365 187.25 275.026 188.245C275.021 188.245 281.047 188.5 287.167 190.75C286.979 190.781 286.808 190.828 286.636 190.891C276.594 188.234 265.563 190.047 264.631 189.531C267.011 191.526 269.729 191.5 272.209 192.651C271.698 192.411 257.427 193.188 248.563 199.583C248.917 199.427 252.224 198.464 255.49 199.203C254.183 199.005 242.927 204.802 237.802 216.583C239 215.401 239.912 213.943 241.193 212.844C238.344 218.036 236.245 225.802 236.104 227.953C236.287 227.193 241.266 217.807 246.86 213.63C245.761 214.656 243.589 219.318 243.287 221.76C246.448 216.432 250.792 210.057 252.943 209.354C252.839 211.078 251.854 213.443 251.854 213.443C252.974 212.792 257.354 207.109 260.068 203.635C259.287 205.135 258.703 208.109 256.693 210.688C257.131 210.526 257.589 210.26 257.964 209.953C259.839 208.406 261.521 206.573 263.157 204.776C264.49 203.302 265.745 201.49 267.558 200.573C266.073 201.328 265.308 204.833 264.756 206.292C264.745 206.312 270.823 201.682 274.193 198.229C273.276 199.906 273.136 199.62 271.688 202.276C271.683 202.281 277.881 197.781 285.604 195.411C285.849 195.667 286.141 195.87 286.469 196.016C277.313 198.906 269.615 205.328 268.631 205.354C271.573 205.844 273.808 204.49 276.412 204.219C275.875 204.276 264.474 211.901 260.292 221.505C260.521 221.198 262.771 218.786 265.818 217.807C264.641 218.281 258.188 228.578 259.714 240.812C260.125 239.245 260.167 237.599 260.683 236.057C260.881 241.745 262.938 249.182 263.875 251.026C263.657 250.307 263.172 240.125 265.75 233.943C265.344 235.323 265.839 240.229 266.776 242.401C266.776 236.458 267.245 229.068 268.677 227.432C269.438 228.906 269.782 231.344 269.782 231.344C270.391 230.25 271.24 223.333 271.776 219.141C271.823 220.75 272.834 223.521 272.422 226.698C272.709 226.359 272.953 225.911 273.115 225.479C273.907 223.281 274.401 220.943 274.865 218.656C275.25 216.792 275.401 214.688 276.448 213.042C275.589 214.391 276.672 217.656 276.933 219.13C276.938 219.156 279.688 212.354 280.782 207.859C280.844 209.698 280.584 209.526 280.688 212.422C280.688 212.432 283.214 206.604 287.75 201.177C288.094 201.333 288.479 201.427 288.891 201.427C289.584 201.427 290.214 201.151 290.703 200.729C288.229 216.812 281.037 236.25 271.745 253.224L284.709 242.953C290.511 224.672 292.506 208.135 293.157 200.443C293.417 200.573 293.709 200.646 294.016 200.646C295.131 200.646 296.026 199.745 296.026 198.635C296.026 197.901 295.636 197.266 295.058 196.917C295.12 196.865 295.183 196.797 295.245 196.74C300.537 204.797 301.125 216.109 301.125 216.104C302.198 213.51 301.907 213.573 302.589 211.932C303.87 217.177 303.797 231.844 303.797 231.844C304.547 230.911 306.714 226.755 307.078 224.911C306.433 231.401 304.438 235.698 304.62 236.953C304.62 236.953 305.761 234.859 306.943 233.781C307.073 240.062 306.443 245.229 305.667 249.078L307.823 250.786C309.125 248.734 310.407 246.438 311.282 244.302C311.235 245.875 310.709 247.38 310.552 248.943C316.078 238.359 313.703 226.844 312.792 226.016C315.172 227.885 316.198 231.469 316.308 232.094C315.714 218.677 308.787 205.063 300.037 198.401C300.495 198.036 300.834 197.531 300.995 196.948C308.24 199.865 313.907 204.958 313.907 204.953C312.834 202.359 312.672 202.615 311.995 200.974C316.61 203.776 326.933 214.198 326.933 214.198C326.802 213 325.391 208.531 324.349 206.974C328.474 212.016 330.11 216.474 331.125 217.224C331.125 217.224 330.448 214.938 330.526 213.339C340.578 222.99 344.146 231.453 344.245 232.172C344.328 230.177 343.151 222.797 341.032 217.719C342.11 218.859 342.802 220.297 343.797 221.505ZM334.25 179.349C334.287 179.349 334.323 179.354 334.36 179.359C334.37 179.349 334.328 179.349 334.25 179.349ZM260.36 174.661C260.396 174.661 260.422 174.661 260.453 174.661C260.391 174.651 260.349 174.651 260.36 174.661ZM318.151 159.516C318.177 159.5 318.209 159.484 318.235 159.469C318.245 159.448 318.209 159.474 318.151 159.516ZM295.396 159.849C295.412 159.812 295.433 159.786 295.448 159.755C295.448 159.74 295.433 159.776 295.396 159.849Z" fill="#2563EB"/>
<path d="M172.276 152.312C172.156 152.354 172.042 152.401 171.922 152.453L171.917 152.443C172.047 152.375 172.177 152.312 172.312 152.25C172.297 152.266 172.286 152.286 172.276 152.312ZM163.646 155.26C163.599 155.245 163.562 155.234 163.526 155.219C163.214 154.953 162.87 154.729 162.495 154.573C162.885 154.719 163.281 154.87 163.667 155.031C163.661 155.104 163.646 155.182 163.646 155.26ZM211.208 211.057C211.906 213.104 211.953 215.297 212.5 217.385C214.536 201.089 205.938 187.385 204.375 186.75C208.448 188.062 211.453 191.281 211.74 191.682C206.167 178.88 190.974 168.729 190.26 168.651C193.729 169.01 196.708 170.812 200.62 170.161C199.318 170.13 189.068 161.573 176.875 157.729C177.302 157.531 177.693 157.26 178.021 156.917C188.297 160.078 196.557 166.068 196.552 166.057C194.63 162.521 194.438 162.917 193.219 160.672C197.703 165.271 205.802 171.443 205.786 171.411C205.052 169.469 204.036 164.797 202.057 163.792C204.469 165.021 206.141 167.427 207.917 169.385C210.094 171.781 212.333 174.224 214.833 176.286C215.328 176.693 215.943 177.057 216.531 177.26C213.839 173.823 213.073 169.865 212.031 167.87C215.635 172.495 221.479 180.068 222.969 180.937C222.969 180.937 221.661 177.781 221.526 175.484C224.391 176.422 230.177 184.917 234.38 192.016C233.974 188.76 231.089 182.552 229.625 181.187C237.078 186.75 243.698 199.245 243.948 200.26C243.76 197.401 240.964 187.057 237.167 180.13C238.88 181.604 240.094 183.542 241.688 185.125C234.859 169.422 219.865 161.703 218.125 161.969C222.474 160.979 226.885 162.271 227.354 162.474C215.552 153.958 196.536 152.927 195.859 153.234C199.156 151.714 202.786 151.75 205.958 149.083C204.714 149.776 190.016 147.354 176.646 150.901C176.422 150.818 176.188 150.75 175.943 150.714C184.083 147.708 192.109 147.375 192.104 147.375C188.995 146.047 189.078 146.406 187.109 145.568C193.432 144.078 211.078 144.333 211.078 144.333C209.958 143.417 204.984 140.766 202.776 140.302C210.568 141.151 215.724 143.609 217.229 143.391C217.229 143.391 214.729 142.005 213.438 140.562C230.203 140.38 240.406 144.635 241.094 145.177C239.479 143.391 232.255 138.047 226.151 135.469C228.036 135.547 229.849 136.187 231.719 136.396C219.052 129.63 205.167 132.359 204.161 133.443C206.443 130.609 210.76 129.411 211.516 129.281C198.625 129.734 185.531 135.042 176.651 142.484C180.594 138.26 184.589 135.609 184.583 135.609C181.833 135.995 182.042 136.214 180.302 136.458C184.125 132.734 196.651 125.437 196.651 125.437C195.474 125.266 190.849 125.51 189.104 126.12C194.943 123.417 199.609 122.964 200.583 122.172C200.583 122.172 198.229 122.255 196.719 121.786C208.438 114.557 217.417 113.234 218.135 113.323C216.245 112.75 208.891 112.047 203.51 112.818C204.87 112.078 206.411 111.76 207.823 111.115C196.036 111.719 187.422 119.516 187.172 120.708C187.578 117.75 190.104 115.078 190.589 114.667C182.214 120.109 175.547 128.661 172.214 137.167C172.37 128.047 169.948 117.906 164.974 109.552C165.266 110.255 166.401 114 165.401 117.026C165.719 115.75 161.078 104.068 149.927 97.8541C150.984 99.1614 152.339 100.198 153.302 101.573C148.438 98.2604 140.969 95.4323 138.865 95.0833C139.599 95.3437 147.682 100.906 155.615 113.521C153.922 113.25 151.677 112.047 151.677 112.047C152.245 113.281 156.557 115.948 160.943 121.365C159.536 119.932 155.161 117.49 153.938 117.094C153.938 117.094 162.615 130.156 164.552 135.594C162.979 134.531 163.286 134.417 160.802 132.729C160.786 132.729 164.281 138.682 165.995 146.042C162.286 132.146 150.01 117.016 134.677 109.115C135.375 109.594 139.13 112.839 140.073 116.745C139.578 115.193 126.964 105.901 111.094 106.687C113.063 107.365 115.177 107.573 117.099 108.396C109.776 108.089 100.016 110.031 97.5573 111.047C98.5052 110.839 110.729 111.391 127.422 119.5C125.453 120.328 122.286 120.542 122.286 120.542C123.703 121.469 130.021 121.448 138.229 124.271C135.802 123.698 129.562 123.995 128.005 124.38C128.005 124.38 145.797 132.469 151.427 136.943C149.057 136.854 149.302 136.536 145.568 136.396C145.557 136.391 157.5 142.651 164.552 152.552C164.469 152.656 164.401 152.771 164.328 152.885C154.755 140.839 132.953 133.073 113.224 135.526C114.078 135.531 119.005 136.083 121.99 138.786C120.703 137.776 105.047 137.219 92.3802 146.828C94.3906 146.276 96.2552 145.255 98.3073 144.839C92.0937 148.729 85.1198 155.833 83.6719 158.062C84.3281 157.359 94.7344 150.917 113.094 148.187C111.943 149.99 109.443 151.948 109.443 151.948C111.13 151.911 116.339 148.333 124.703 146.042C122.37 146.932 117.401 150.698 116.328 151.891C116.328 151.891 135.578 148.531 142.75 149.057C140.75 150.312 140.771 149.911 137.604 151.896C137.599 151.906 151.062 150.333 162.484 154.568C162.062 154.396 161.589 154.297 161.099 154.297C160.828 154.297 160.568 154.328 160.318 154.38C145.599 151.359 124.87 157.667 110.969 170.391C111.682 169.896 116.01 167.505 120 167.979C118.365 167.901 105.281 176.51 100.516 191.677C101.839 190.062 102.766 188.151 104.198 186.63C101.375 193.396 99.8125 203.219 99.9167 205.885C100.047 204.922 104.802 193.651 118.193 180.792C118.292 182.927 117.396 185.969 117.396 185.969C118.75 184.964 120.917 179.031 126.417 172.318C125.031 174.396 123.151 180.349 122.974 181.943C122.974 181.943 136.724 168.057 142.875 164.328C141.969 166.516 141.755 166.172 140.328 169.63C140.323 169.635 147.865 162.839 157.521 158.953C157.734 159.74 158.182 160.417 158.802 160.901C147.146 169.776 137.922 187.906 137.13 205.771C137.281 204.927 138.651 200.167 141.807 197.677C140.604 198.776 137.432 214.125 144.792 228.214C144.583 226.135 143.891 224.13 143.823 222.036C146.615 228.818 152.458 236.875 154.411 238.682C153.823 237.906 149.219 226.573 149.599 208.021C151.177 209.458 152.688 212.245 152.688 212.245C152.943 210.578 150.276 204.844 149.417 196.208C149.901 198.656 152.792 204.193 153.792 205.443C153.792 205.443 153.693 185.906 155.406 178.922C156.312 181.109 155.917 181.016 157.354 184.474C157.354 184.484 158.13 169.422 165.182 158.682C165.271 158.76 165.339 158.854 165.432 158.922C164.661 159.391 164.135 160.24 164.135 161.214C164.135 162.693 165.333 163.891 166.812 163.891C167.229 163.891 167.615 163.792 167.969 163.62C169.281 179.172 174.693 221.875 195.781 258.646L206.734 249.969C189.536 225.104 175.401 191.63 171.214 163.995C171.87 164.568 172.714 164.927 173.651 164.927C174.188 164.927 174.698 164.807 175.161 164.594C181.208 171.823 184.562 179.589 184.562 179.578C184.703 175.714 184.354 175.943 184.443 173.5C185.901 179.49 189.568 188.542 189.573 188.51C189.917 186.547 191.359 182.198 190.219 180.391C191.609 182.589 191.812 185.396 192.323 187.885C192.943 190.927 193.594 194.036 194.656 196.958C194.865 197.536 195.193 198.135 195.573 198.594C195.042 194.443 196.344 190.792 196.458 188.641C197.167 194.224 198.292 203.328 199.094 204.776C199.094 204.776 199.557 201.526 200.562 199.573C202.474 201.74 203.094 211.583 203.094 219.505C204.354 216.615 205.005 210.083 204.464 208.234C207.896 216.474 207.25 230.026 206.964 230.984C208.203 228.531 210.953 218.63 211.208 211.057ZM211.516 129.281C211.557 129.281 211.594 129.276 211.641 129.276C211.656 129.266 211.604 129.271 211.516 129.281ZM164.911 109.432C164.932 109.469 164.953 109.516 164.974 109.552C164.938 109.458 164.911 109.411 164.911 109.432ZM110.865 170.484C110.896 170.453 110.932 170.417 110.969 170.391C110.885 170.448 110.844 170.484 110.865 170.484ZM137.12 205.911C137.125 205.865 137.13 205.818 137.13 205.771C137.115 205.875 137.109 205.927 137.12 205.911ZM134.677 109.115C134.594 109.057 134.547 109.026 134.557 109.047C134.594 109.068 134.641 109.089 134.677 109.115ZM113.224 135.526C113.125 135.526 113.073 135.526 113.089 135.536C113.135 135.531 113.182 135.531 113.224 135.526Z" fill="#2563EB"/>
<path d="M167.791 265.229L165.13 271.391L167.791 269.708V286.766H179.375V265.229H167.791Z" fill="#2563EB"/>
<path d="M222.198 242.057L167.792 285.172V290.359H165.13V287.281L153.656 296.38V313.802L222.198 259.479L290.75 313.802V296.38L222.198 242.057Z" fill="#2563EB"/>
</svg>
