<svg xmlns="http://www.w3.org/2000/svg" xmlns:xlink="http://www.w3.org/1999/xlink" width="500" zoomAndPan="magnify" viewBox="0 0 375 374.999991" height="500" preserveAspectRatio="xMidYMid meet" version="1.0"><defs><clipPath id="2c10e736cd"><path d="M 19.652344 19.652344 L 352.472656 19.652344 L 352.472656 352.472656 L 19.652344 352.472656 Z M 19.652344 19.652344 " clip-rule="nonzero"/></clipPath><clipPath id="1a8a824c88"><path d="M 186.0625 352.472656 C 141.632812 352.472656 99.796875 335.179688 68.402344 303.71875 C 36.945312 272.328125 19.652344 230.492188 19.652344 186.0625 C 19.652344 141.632812 36.945312 99.796875 68.402344 68.402344 C 99.796875 36.945312 141.632812 19.652344 186.0625 19.652344 C 230.492188 19.652344 272.328125 36.945312 303.71875 68.402344 C 335.179688 99.863281 352.472656 141.632812 352.472656 186.0625 C 352.472656 230.492188 335.179688 272.328125 303.71875 303.71875 C 272.328125 335.179688 230.492188 352.472656 186.0625 352.472656 Z M 186.0625 29.628906 C 144.292969 29.628906 104.984375 45.921875 75.453125 75.453125 C 45.921875 104.984375 29.628906 144.292969 29.628906 186.0625 C 29.628906 227.832031 45.921875 267.140625 75.453125 296.671875 C 104.984375 326.199219 144.292969 342.496094 186.0625 342.496094 C 227.832031 342.496094 267.140625 326.199219 296.671875 296.671875 C 326.199219 267.140625 342.496094 227.832031 342.496094 186.0625 C 342.496094 144.292969 326.199219 104.984375 296.671875 75.453125 C 267.140625 45.921875 227.832031 29.628906 186.0625 29.628906 Z M 186.0625 29.628906 " clip-rule="nonzero"/></clipPath><clipPath id="79ac4004ea"><path d="M 168 66.824219 L 316.34375 66.824219 L 316.34375 228.65625 L 168 228.65625 Z M 168 66.824219 " clip-rule="nonzero"/></clipPath><clipPath id="6c3f87d5b5"><path d="M 55.390625 244 L 306 244 L 306 283 L 55.390625 283 Z M 55.390625 244 " clip-rule="nonzero"/></clipPath><clipPath id="45860a64fc"><path d="M 55.816406 262 L 268.804688 262 L 268.804688 305.269531 L 55.816406 305.269531 Z M 55.816406 262 " clip-rule="nonzero"/></clipPath></defs><g clip-path="url(#2c10e736cd)"><g clip-path="url(#1a8a824c88)"><path fill="#3871c1" d="M 19.652344 19.652344 L 352.472656 19.652344 L 352.472656 352.472656 L 19.652344 352.472656 Z M 19.652344 19.652344 " fill-opacity="1" fill-rule="nonzero"/></g></g><g clip-path="url(#79ac4004ea)"><path fill="#ff9f00" d="M 234.269531 67.289062 C 209.59375 64.804688 186.238281 72.402344 168.269531 86.726562 C 183.945312 78.390625 202.175781 74.445312 221.167969 76.359375 C 272.265625 81.507812 309.515625 127.105469 304.367188 178.207031 C 302.449219 197.214844 294.933594 214.308594 283.621094 228.011719 C 301.265625 213.265625 313.386719 191.878906 315.871094 167.1875 C 320.921875 117.066406 284.386719 72.34375 234.269531 67.289062 " fill-opacity="1" fill-rule="nonzero"/></g><g clip-path="url(#6c3f87d5b5)"><path fill="#3871c1" d="M 132.652344 247.8125 C 69.835938 235.351562 55.816406 263.835938 55.816406 263.835938 C 67.714844 253.964844 97.78125 248.042969 175.8125 273.410156 C 272.011719 304.675781 305.210938 245.785156 305.210938 245.785156 C 250.636719 284.375 187.976562 258.789062 132.652344 247.8125 " fill-opacity="1" fill-rule="nonzero"/></g><g clip-path="url(#45860a64fc)"><path fill="#51ade5" d="M 121.898438 268.457031 C 88.691406 257.609375 67.691406 262.492188 55.894531 268.519531 C 68.125 265.960938 85.015625 266.089844 107.515625 273.441406 C 157.960938 289.921875 213.71875 320.1875 268.753906 296.605469 C 218.433594 310.046875 167.949219 283.503906 121.898438 268.457031 " fill-opacity="1" fill-rule="nonzero"/></g><path fill="#656263" d="M 168.085938 233.851562 L 176.902344 233.851562 L 176.902344 225.035156 L 168.085938 225.035156 Z M 156.398438 233.851562 L 165.21875 233.851562 L 165.21875 225.035156 L 156.398438 225.035156 Z M 168.085938 213.554688 L 168.085938 222.371094 L 176.902344 222.371094 L 176.902344 213.554688 Z M 156.398438 222.371094 L 165.21875 222.371094 L 165.21875 213.554688 L 156.398438 213.554688 L 156.398438 222.371094 " fill-opacity="1" fill-rule="nonzero"/><path fill="#51ade5" d="M 218.492188 181.542969 L 196.226562 199.191406 L 204.46875 205.722656 L 218.492188 194.609375 L 269.902344 235.351562 L 269.902344 222.285156 L 218.492188 181.542969 " fill-opacity="1" fill-rule="nonzero"/><path fill="#3871c1" d="M 237.230469 174.070312 C 237.234375 174.09375 237.234375 174.121094 237.234375 174.144531 C 237.242188 174.15625 237.242188 174.125 237.230469 174.070312 Z M 251.949219 154.132812 C 251.972656 154.15625 251.996094 154.171875 252.023438 154.195312 C 252.035156 154.195312 252.003906 154.171875 251.949219 154.132812 Z M 222.351562 145.613281 C 222.335938 145.621094 222.320312 145.625 222.296875 145.628906 C 222.296875 145.582031 222.289062 145.539062 222.285156 145.492188 C 222.503906 145.402344 222.722656 145.320312 222.941406 145.238281 C 222.722656 145.328125 222.527344 145.457031 222.351562 145.613281 Z M 217.648438 144.046875 C 217.570312 144.011719 217.496094 143.980469 217.414062 143.953125 C 217.40625 143.941406 217.394531 143.925781 217.386719 143.910156 C 217.472656 143.953125 217.5625 143.996094 217.652344 144.042969 C 217.648438 144.042969 217.648438 144.046875 217.648438 144.046875 Z M 257.847656 166.128906 C 255.167969 157.589844 247.796875 152.742188 246.875 152.785156 C 249.09375 152.519531 251.5 153.835938 251.949219 154.132812 C 244.121094 146.980469 232.46875 143.441406 224.191406 145.136719 C 224.042969 145.101562 223.890625 145.082031 223.734375 145.082031 C 223.457031 145.082031 223.195312 145.136719 222.957031 145.234375 C 229.386719 142.851562 236.96875 143.734375 236.960938 143.730469 C 235.179688 142.613281 235.191406 142.839844 234.0625 142.128906 C 238.101562 141.835938 248.941406 143.726562 248.941406 143.726562 C 248.339844 143.054688 245.539062 140.933594 244.222656 140.433594 C 248.9375 141.722656 251.867188 143.738281 252.820312 143.757812 C 252.820312 143.757812 251.414062 142.65625 250.765625 141.644531 C 261.105469 143.175781 266.960938 146.808594 267.335938 147.203125 C 266.515625 145.945312 262.59375 141.945312 259.089844 139.753906 C 260.246094 139.988281 261.296875 140.5625 262.429688 140.878906 C 255.296875 135.464844 246.480469 135.777344 245.757812 136.347656 C 247.433594 134.828125 250.203125 134.515625 250.6875 134.511719 C 239.578125 133.132812 227.308594 137.503906 221.914062 144.285156 C 221.875 144.226562 221.832031 144.160156 221.789062 144.097656 C 225.757812 138.523438 232.484375 134.996094 232.476562 134.996094 C 230.375 135.078125 230.511719 135.261719 229.179688 135.308594 C 232.351562 132.789062 242.367188 128.238281 242.367188 128.238281 C 241.492188 128.019531 237.980469 127.847656 236.609375 128.175781 C 241.230469 126.582031 244.789062 126.59375 245.585938 126.074219 C 245.585938 126.074219 243.804688 125.953125 242.695312 125.484375 C 252.097656 120.921875 258.984375 120.613281 259.515625 120.730469 C 258.128906 120.15625 252.632812 119.0625 248.507812 119.234375 C 249.59375 118.773438 250.78125 118.652344 251.894531 118.273438 C 242.953125 117.828125 235.851562 123.0625 235.574219 123.941406 C 236.105469 121.734375 238.226562 119.90625 238.613281 119.636719 C 230.023438 124.0625 223.136719 132.511719 221.007812 140.304688 C 221.980469 136.222656 223.90625 132.933594 223.902344 132.9375 C 222.503906 133.886719 222.671875 133.949219 221.789062 134.550781 C 222.878906 131.488281 227.761719 124.136719 227.761719 124.136719 C 227.074219 124.355469 224.609375 125.734375 223.820312 126.539062 C 226.289062 123.488281 228.71875 121.984375 229.035156 121.292969 C 229.035156 121.292969 227.777344 121.96875 226.820312 122.121094 C 231.289062 115.015625 235.84375 111.878906 236.253906 111.738281 C 235.066406 111.933594 230.859375 113.523438 228.121094 115.390625 C 228.667969 114.617188 229.425781 114.03125 230.023438 113.300781 C 223.742188 116.792969 221.128906 123.371094 221.3125 124.089844 C 220.746094 122.390625 221.386719 120.28125 221.546875 119.886719 C 218.746094 124.59375 217.378906 130.304688 217.472656 135.441406 C 215.589844 130.636719 211.816406 125.796875 207.078125 122.730469 C 207.042969 122.640625 208.796875 124.304688 209.046875 126.167969 C 208.910156 125.496094 204.054688 121.105469 197.421875 120.761719 C 198.214844 121.128906 199.085938 121.304688 199.851562 121.726562 C 196.816406 121.292969 192.679688 121.6875 191.613281 122.007812 C 192.015625 121.957031 197.074219 122.703125 203.671875 126.773438 C 202.820312 127.039062 201.5 126.996094 201.5 126.996094 C 202.046875 127.4375 204.671875 127.695312 207.964844 129.21875 C 206.976562 128.871094 204.375 128.734375 203.710938 128.828125 C 203.710938 128.828125 210.765625 132.941406 212.917969 135.035156 C 211.9375 134.898438 212.054688 134.78125 210.507812 134.558594 C 210.503906 134.558594 212.753906 136.050781 214.972656 138.425781 C 209.96875 134.238281 202.597656 131.246094 195.339844 130.996094 C 195.761719 131.070312 198.195312 131.742188 199.480469 133.335938 C 198.917969 132.726562 191.097656 131.191406 183.960938 135 C 185.019531 134.886719 186.039062 134.523438 187.097656 134.476562 C 183.664062 135.929688 179.59375 138.941406 178.683594 139.941406 C 179.070312 139.640625 184.816406 137.242188 194.253906 137.347656 C 193.535156 138.15625 192.121094 138.945312 192.121094 138.945312 C 192.972656 139.0625 195.875 137.679688 200.265625 137.203125 C 199.023438 137.460938 196.222656 138.957031 195.585938 139.46875 C 195.585938 139.46875 205.523438 139.328125 209.089844 140.167969 C 207.980469 140.636719 208.023438 140.4375 206.269531 141.183594 C 206.265625 141.183594 210.785156 141.375 215.375 143.0625 C 215.234375 143.085938 215.105469 143.121094 214.976562 143.167969 C 207.445312 141.175781 199.171875 142.535156 198.472656 142.148438 C 200.257812 143.644531 202.296875 143.625 204.15625 144.488281 C 203.773438 144.308594 193.070312 144.890625 186.421875 149.6875 C 186.6875 149.570312 189.167969 148.847656 191.617188 149.402344 C 190.636719 149.253906 182.195312 153.601562 178.351562 162.4375 C 179.25 161.550781 179.933594 160.457031 180.894531 159.632812 C 178.757812 163.527344 177.183594 169.351562 177.078125 170.964844 C 177.214844 170.394531 180.949219 163.355469 185.144531 160.222656 C 184.320312 160.992188 182.691406 164.488281 182.464844 166.320312 C 184.835938 162.324219 188.09375 157.542969 189.707031 157.015625 C 189.628906 158.308594 188.890625 160.082031 188.890625 160.082031 C 189.730469 159.59375 193.015625 155.332031 195.050781 152.726562 C 194.464844 153.851562 194.027344 156.082031 192.519531 158.015625 C 192.847656 157.894531 193.191406 157.695312 193.472656 157.464844 C 194.878906 156.304688 196.140625 154.929688 197.367188 153.582031 C 198.367188 152.476562 199.308594 151.117188 200.667969 150.429688 C 199.554688 150.996094 198.980469 153.625 198.566406 154.71875 C 198.558594 154.734375 203.117188 151.261719 205.644531 148.671875 C 204.957031 149.929688 204.851562 149.714844 203.765625 151.707031 C 203.761719 151.710938 208.410156 148.335938 214.203125 146.558594 C 214.386719 146.75 214.605469 146.902344 214.851562 147.011719 C 207.984375 149.179688 202.210938 153.996094 201.472656 154.015625 C 203.679688 154.382812 205.355469 153.367188 207.308594 153.164062 C 206.90625 153.207031 198.355469 158.925781 195.21875 166.128906 C 195.390625 165.898438 197.078125 164.089844 199.363281 163.355469 C 198.480469 163.710938 193.640625 171.433594 194.785156 180.609375 C 195.09375 179.433594 195.125 178.199219 195.511719 177.042969 C 195.660156 181.308594 197.203125 186.886719 197.90625 188.269531 C 197.742188 187.730469 197.378906 180.09375 199.3125 175.457031 C 199.007812 176.492188 199.378906 180.171875 200.082031 181.800781 C 200.082031 177.34375 200.433594 171.800781 201.507812 170.574219 C 202.078125 171.679688 202.335938 173.507812 202.335938 173.507812 C 202.792969 172.6875 203.429688 167.5 203.832031 164.355469 C 203.867188 165.5625 204.625 167.640625 204.316406 170.023438 C 204.53125 169.769531 204.714844 169.433594 204.835938 169.109375 C 205.429688 167.460938 205.800781 165.707031 206.148438 163.992188 C 206.4375 162.59375 206.550781 161.015625 207.335938 159.78125 C 206.691406 160.792969 207.503906 163.242188 207.699219 164.347656 C 207.703125 164.367188 209.765625 159.265625 210.585938 155.894531 C 210.632812 157.273438 210.4375 157.144531 210.515625 159.316406 C 210.515625 159.324219 212.410156 154.953125 215.8125 150.882812 C 216.070312 151 216.359375 151.070312 216.667969 151.070312 C 217.1875 151.070312 217.660156 150.863281 218.027344 150.546875 C 216.171875 162.609375 210.777344 177.1875 203.808594 189.917969 L 213.53125 182.214844 C 217.882812 168.503906 219.378906 156.101562 219.867188 150.332031 C 220.0625 150.429688 220.28125 150.484375 220.511719 150.484375 C 221.347656 150.484375 222.019531 149.808594 222.019531 148.976562 C 222.019531 148.425781 221.726562 147.949219 221.292969 147.6875 C 221.339844 147.648438 221.386719 147.597656 221.433594 147.554688 C 225.402344 153.597656 225.84375 162.082031 225.84375 162.078125 C 226.648438 160.132812 226.429688 160.179688 226.941406 158.949219 C 227.902344 162.882812 227.847656 173.882812 227.847656 173.882812 C 228.410156 173.183594 230.035156 170.066406 230.308594 168.683594 C 229.824219 173.550781 228.328125 176.773438 228.464844 177.714844 C 228.464844 177.714844 229.320312 176.144531 230.207031 175.335938 C 230.304688 180.046875 229.832031 183.921875 229.25 186.808594 L 230.867188 188.089844 C 231.84375 186.550781 232.804688 184.828125 233.460938 183.226562 C 233.425781 184.40625 233.03125 185.535156 232.914062 186.707031 C 237.058594 178.769531 235.277344 170.132812 234.59375 169.511719 C 236.378906 170.914062 237.148438 173.601562 237.230469 174.070312 C 236.785156 164.007812 231.589844 153.796875 225.027344 148.800781 C 225.371094 148.527344 225.625 148.148438 225.746094 147.710938 C 231.179688 149.898438 235.429688 153.71875 235.429688 153.714844 C 234.625 151.769531 234.503906 151.960938 233.996094 150.730469 C 237.457031 152.832031 245.199219 160.648438 245.199219 160.648438 C 245.101562 159.75 244.042969 156.398438 243.261719 155.230469 C 246.355469 159.011719 247.582031 162.355469 248.34375 162.917969 C 248.34375 162.917969 247.835938 161.203125 247.894531 160.003906 C 255.433594 167.242188 258.109375 173.589844 258.183594 174.128906 C 258.246094 172.632812 257.363281 167.097656 255.773438 163.289062 C 256.582031 164.144531 257.101562 165.222656 257.847656 166.128906 Z M 250.6875 134.511719 C 250.714844 134.511719 250.742188 134.515625 250.769531 134.519531 C 250.777344 134.511719 250.746094 134.511719 250.6875 134.511719 Z M 195.269531 130.996094 C 195.296875 130.996094 195.316406 130.996094 195.339844 130.996094 C 195.292969 130.988281 195.261719 130.988281 195.269531 130.996094 Z M 238.613281 119.636719 C 238.632812 119.625 238.65625 119.613281 238.675781 119.601562 C 238.683594 119.585938 238.65625 119.605469 238.613281 119.636719 Z M 221.546875 119.886719 C 221.558594 119.859375 221.574219 119.839844 221.585938 119.816406 C 221.585938 119.804688 221.574219 119.832031 221.546875 119.886719 " fill-opacity="1" fill-rule="nonzero"/><path fill="#3871c1" d="M 129.207031 114.234375 C 129.117188 114.265625 129.03125 114.300781 128.941406 114.339844 L 128.9375 114.332031 C 129.035156 114.28125 129.132812 114.234375 129.234375 114.1875 C 129.222656 114.199219 129.214844 114.214844 129.207031 114.234375 Z M 122.734375 116.445312 C 122.699219 116.433594 122.671875 116.425781 122.644531 116.414062 C 122.410156 116.214844 122.152344 116.046875 121.871094 115.929688 C 122.164062 116.039062 122.460938 116.152344 122.75 116.273438 C 122.746094 116.328125 122.734375 116.386719 122.734375 116.445312 Z M 158.40625 158.292969 C 158.929688 159.828125 158.964844 161.472656 159.375 163.039062 C 160.902344 150.816406 154.453125 140.539062 153.28125 140.0625 C 156.335938 141.046875 158.589844 143.460938 158.804688 143.761719 C 154.625 134.160156 143.230469 126.546875 142.695312 126.488281 C 145.296875 126.757812 147.53125 128.109375 150.464844 127.621094 C 149.488281 127.597656 141.800781 121.179688 132.65625 118.296875 C 132.976562 118.148438 133.269531 117.945312 133.515625 117.6875 C 141.222656 120.058594 147.417969 124.550781 147.414062 124.542969 C 145.972656 121.890625 145.828125 122.1875 144.914062 120.503906 C 148.277344 123.953125 154.351562 128.582031 154.339844 128.558594 C 153.789062 127.101562 153.027344 123.597656 151.542969 122.84375 C 153.351562 123.765625 154.605469 125.570312 155.9375 127.039062 C 157.570312 128.835938 159.25 130.667969 161.125 132.214844 C 161.496094 132.519531 161.957031 132.792969 162.398438 132.945312 C 160.378906 130.367188 159.804688 127.398438 159.023438 125.902344 C 161.726562 129.371094 166.109375 135.050781 167.226562 135.703125 C 167.226562 135.703125 166.246094 133.335938 166.144531 131.613281 C 168.292969 132.316406 172.632812 138.6875 175.785156 144.011719 C 175.480469 141.570312 173.316406 136.914062 172.21875 135.890625 C 177.808594 140.0625 182.773438 149.433594 182.960938 150.195312 C 182.820312 148.050781 180.722656 140.292969 177.875 135.097656 C 179.160156 136.203125 180.070312 137.65625 181.265625 138.84375 C 176.144531 127.066406 164.898438 121.277344 163.59375 121.476562 C 166.855469 120.734375 170.164062 121.703125 170.515625 121.855469 C 161.664062 115.46875 147.402344 114.695312 146.894531 114.925781 C 149.367188 113.785156 152.089844 113.8125 154.46875 111.8125 C 153.535156 112.332031 142.511719 110.515625 132.484375 113.175781 C 132.316406 113.113281 132.140625 113.0625 131.957031 113.035156 C 138.0625 110.78125 144.082031 110.53125 144.078125 110.53125 C 141.746094 109.535156 141.808594 109.804688 140.332031 109.175781 C 145.074219 108.058594 158.308594 108.25 158.308594 108.25 C 157.46875 107.5625 153.738281 105.574219 152.082031 105.226562 C 157.925781 105.863281 161.792969 107.707031 162.921875 107.542969 C 162.921875 107.542969 161.046875 106.503906 160.078125 105.421875 C 172.652344 105.285156 180.304688 108.476562 180.820312 108.882812 C 179.609375 107.542969 174.191406 103.535156 169.613281 101.601562 C 171.027344 101.660156 172.386719 102.140625 173.789062 102.296875 C 164.289062 97.222656 153.875 99.269531 153.121094 100.082031 C 154.832031 97.957031 158.070312 97.058594 158.636719 96.960938 C 148.96875 97.300781 139.148438 101.28125 132.488281 106.863281 C 135.445312 103.695312 138.441406 101.707031 138.4375 101.707031 C 136.375 101.996094 136.53125 102.160156 135.226562 102.34375 C 138.09375 99.550781 147.488281 94.078125 147.488281 94.078125 C 146.605469 93.949219 143.136719 94.132812 141.828125 94.589844 C 146.207031 92.5625 149.707031 92.222656 150.4375 91.628906 C 150.4375 91.628906 148.671875 91.691406 147.539062 91.339844 C 156.328125 85.917969 163.0625 84.925781 163.601562 84.992188 C 162.183594 84.5625 156.667969 84.035156 152.632812 84.613281 C 153.652344 84.058594 154.808594 83.820312 155.867188 83.335938 C 147.027344 83.789062 140.566406 89.636719 140.378906 90.53125 C 140.683594 88.3125 142.578125 86.308594 142.941406 86 C 136.660156 90.082031 131.660156 96.496094 129.160156 102.875 C 129.277344 96.035156 127.460938 88.429688 123.730469 82.164062 C 123.949219 82.691406 124.800781 85.5 124.050781 87.769531 C 124.289062 86.8125 120.808594 78.050781 112.445312 73.390625 C 113.238281 74.371094 114.253906 75.148438 114.976562 76.179688 C 111.328125 73.695312 105.726562 71.574219 104.148438 71.3125 C 104.699219 71.507812 110.761719 75.679688 116.710938 85.140625 C 115.441406 84.9375 113.757812 84.035156 113.757812 84.035156 C 114.183594 84.960938 117.417969 86.960938 120.707031 91.023438 C 119.652344 89.949219 116.371094 88.117188 115.453125 87.820312 C 115.453125 87.820312 121.960938 97.617188 123.414062 101.695312 C 122.234375 100.898438 122.464844 100.8125 120.601562 99.546875 C 120.589844 99.546875 123.210938 104.011719 124.496094 109.53125 C 121.714844 99.109375 112.507812 87.761719 101.007812 81.835938 C 101.53125 82.195312 104.347656 84.628906 105.054688 87.558594 C 104.683594 86.394531 95.222656 79.425781 83.320312 80.015625 C 84.796875 80.523438 86.382812 80.679688 87.824219 81.296875 C 82.332031 81.066406 75.011719 82.523438 73.167969 83.285156 C 73.878906 83.128906 83.046875 83.542969 95.566406 89.625 C 94.089844 90.246094 91.714844 90.40625 91.714844 90.40625 C 92.777344 91.101562 97.515625 91.085938 103.671875 93.203125 C 101.851562 92.773438 97.171875 92.996094 96.003906 93.285156 C 96.003906 93.285156 109.347656 99.351562 113.570312 102.707031 C 111.792969 102.640625 111.976562 102.402344 109.175781 102.296875 C 109.167969 102.292969 118.125 106.988281 123.414062 114.414062 C 123.351562 114.492188 123.300781 114.578125 123.246094 114.664062 C 116.066406 105.628906 99.714844 99.804688 84.917969 101.644531 C 85.558594 101.648438 89.253906 102.0625 91.492188 104.089844 C 90.527344 103.332031 78.785156 102.914062 69.285156 110.121094 C 70.792969 109.707031 72.191406 108.941406 73.730469 108.628906 C 69.070312 111.546875 63.839844 116.875 62.753906 118.546875 C 63.246094 118.019531 71.050781 113.1875 84.820312 111.140625 C 83.957031 112.492188 82.082031 113.960938 82.082031 113.960938 C 83.347656 113.933594 87.253906 111.25 93.527344 109.53125 C 91.777344 110.199219 88.050781 113.023438 87.246094 113.917969 C 87.246094 113.917969 101.683594 111.398438 107.0625 111.792969 C 105.5625 112.734375 105.578125 112.433594 103.203125 113.921875 C 103.199219 113.929688 113.296875 112.75 121.863281 115.925781 C 121.546875 115.796875 121.191406 115.722656 120.824219 115.722656 C 120.621094 115.722656 120.425781 115.746094 120.238281 115.785156 C 109.199219 113.519531 93.652344 118.25 83.226562 127.792969 C 83.761719 127.421875 87.007812 125.628906 90 125.984375 C 88.773438 125.925781 78.960938 132.382812 75.386719 143.757812 C 76.378906 142.546875 77.074219 141.113281 78.148438 139.972656 C 76.03125 145.046875 74.859375 152.414062 74.9375 154.414062 C 75.035156 153.691406 78.601562 145.238281 88.644531 135.59375 C 88.71875 137.195312 88.046875 139.476562 88.046875 139.476562 C 89.0625 138.722656 90.6875 134.273438 94.8125 129.238281 C 93.773438 130.796875 92.363281 135.261719 92.230469 136.457031 C 92.230469 136.457031 102.542969 126.042969 107.15625 123.246094 C 106.476562 124.886719 106.316406 124.628906 105.246094 127.222656 C 105.242188 127.226562 110.898438 122.128906 118.140625 119.214844 C 118.300781 119.804688 118.636719 120.3125 119.101562 120.675781 C 110.359375 127.332031 103.441406 140.929688 102.847656 154.328125 C 102.960938 153.695312 103.988281 150.125 106.355469 148.257812 C 105.453125 149.082031 103.074219 160.59375 108.59375 171.160156 C 108.4375 169.601562 107.917969 168.097656 107.867188 166.527344 C 109.960938 171.613281 114.34375 177.65625 115.808594 179.011719 C 115.367188 178.429688 111.914062 169.929688 112.199219 156.015625 C 113.382812 157.09375 114.515625 159.183594 114.515625 159.183594 C 114.707031 157.933594 112.707031 153.632812 112.0625 147.15625 C 112.425781 148.992188 114.59375 153.144531 115.34375 154.082031 C 115.34375 154.082031 115.269531 139.429688 116.554688 134.191406 C 117.234375 135.832031 116.9375 135.761719 118.015625 138.355469 C 118.015625 138.363281 118.597656 127.066406 123.886719 119.011719 C 123.953125 119.070312 124.003906 119.140625 124.074219 119.191406 C 123.496094 119.542969 123.101562 120.179688 123.101562 120.910156 C 123.101562 122.019531 124 122.917969 125.109375 122.917969 C 125.421875 122.917969 125.710938 122.84375 125.976562 122.714844 C 126.960938 134.378906 131.019531 166.40625 146.835938 193.984375 L 155.050781 187.476562 C 142.152344 168.828125 131.550781 143.722656 128.410156 122.996094 C 128.902344 123.425781 129.535156 123.695312 130.238281 123.695312 C 130.640625 123.695312 131.023438 123.605469 131.371094 123.445312 C 135.90625 128.867188 138.421875 134.691406 138.421875 134.683594 C 138.527344 131.785156 138.265625 131.957031 138.332031 130.125 C 139.425781 134.617188 142.175781 141.40625 142.179688 141.382812 C 142.4375 139.910156 143.519531 136.648438 142.664062 135.292969 C 143.707031 136.941406 143.859375 139.046875 144.242188 140.914062 C 144.707031 143.195312 145.195312 145.527344 145.992188 147.71875 C 146.148438 148.152344 146.394531 148.601562 146.679688 148.945312 C 146.28125 145.832031 147.257812 143.09375 147.34375 141.480469 C 147.875 145.667969 148.71875 152.496094 149.320312 153.582031 C 149.320312 153.582031 149.667969 151.144531 150.421875 149.679688 C 151.855469 151.304688 152.320312 158.6875 152.320312 164.628906 C 153.265625 162.460938 153.753906 157.5625 153.347656 156.175781 C 155.921875 162.355469 155.4375 172.519531 155.222656 173.238281 C 156.152344 171.398438 158.214844 163.972656 158.40625 158.292969 Z M 158.636719 96.960938 C 158.667969 96.960938 158.695312 96.957031 158.730469 96.957031 C 158.742188 96.949219 158.703125 96.953125 158.636719 96.960938 Z M 123.683594 82.074219 C 123.699219 82.101562 123.714844 82.136719 123.730469 82.164062 C 123.703125 82.09375 123.683594 82.058594 123.683594 82.074219 Z M 83.148438 127.863281 C 83.171875 127.839844 83.199219 127.8125 83.226562 127.792969 C 83.164062 127.835938 83.132812 127.863281 83.148438 127.863281 Z M 102.839844 154.433594 C 102.84375 154.398438 102.847656 154.363281 102.847656 154.328125 C 102.835938 154.40625 102.832031 154.445312 102.839844 154.433594 Z M 101.007812 81.835938 C 100.945312 81.792969 100.910156 81.769531 100.917969 81.785156 C 100.945312 81.800781 100.980469 81.816406 101.007812 81.835938 Z M 84.917969 101.644531 C 84.84375 101.644531 84.804688 101.644531 84.816406 101.652344 C 84.851562 101.648438 84.886719 101.648438 84.917969 101.644531 " fill-opacity="1" fill-rule="nonzero"/><path fill="#3871c1" d="M 125.84375 198.921875 L 123.847656 203.542969 L 125.84375 202.28125 L 125.84375 215.074219 L 134.53125 215.074219 L 134.53125 198.921875 L 125.84375 198.921875 " fill-opacity="1" fill-rule="nonzero"/><path fill="#3871c1" d="M 166.648438 181.542969 L 125.84375 213.878906 L 125.84375 217.769531 L 123.847656 217.769531 L 123.847656 215.460938 L 115.242188 222.285156 L 115.242188 235.351562 L 166.648438 194.609375 L 218.0625 235.351562 L 218.0625 222.285156 L 166.648438 181.542969 " fill-opacity="1" fill-rule="nonzero"/></svg>